<?xml version="1.0" encoding="UTF-8"?>
<svg width="256px" height="256px" viewBox="0 0 256 256" version="1.1" xmlns="http://www.w3.org/2000/svg" xmlns:xlink="http://www.w3.org/1999/xlink">
    <!-- Generator: Sketch 52.4 (67378) - http://www.bohemiancoding.com/sketch -->
    <title>icon-256x256@2x</title>
    <desc>Created with Sketch.</desc>
    <defs>
        <rect id="path-1" x="0" y="0" width="156" height="141" rx="5"></rect>
        <filter x="-2.6%" y="-2.8%" width="109.0%" height="111.3%" filterUnits="objectBoundingBox" id="filter-2">
            <feOffset dx="6" dy="8" in="SourceAlpha" result="shadowOffsetOuter1"></feOffset>
            <feComposite in="shadowOffsetOuter1" in2="SourceAlpha" operator="out" result="shadowOffsetOuter1"></feComposite>
            <feColorMatrix values="0 0 0 0 0   0 0 0 0 0   0 0 0 0 0  0 0 0 0.12293365 0" type="matrix" in="shadowOffsetOuter1"></feColorMatrix>
        </filter>
    </defs>
    <g id="icon-256x256" stroke="none" stroke-width="1" fill="none" fill-rule="evenodd">
        <rect fill="#003580" x="0" y="0" width="256" height="256"></rect>
        <g id="Group-2" transform="translate(50.000000, 51.000000)">
            <g id="Rectangle">
                <use fill="black" fill-opacity="1" filter="url(#filter-2)" xlink:href="#path-1"></use>
                <rect stroke="#FFFFFF" stroke-width="1" stroke-linejoin="square" fill="#003580" fill-rule="evenodd" x="0.5" y="0.5" width="155" height="140" rx="5"></rect>
            </g>
            <circle id="Oval" fill="#D8D8D8" cx="9" cy="7" r="2"></circle>
            <circle id="Oval-Copy" fill="#D8D8D8" cx="15" cy="7" r="2"></circle>
            <circle id="Oval-Copy-2" fill="#D8D8D8" cx="20" cy="7" r="2"></circle>
            <rect id="Rectangle" stroke="#FFFFFF" stroke-width="0.5" x="13.25" y="30.25" width="58.5" height="3.5" rx="1"></rect>
            <path d="M79,30 L119,30 C119.552285,30 120,30.4477153 120,31 L120,33 C120,33.5522847 119.552285,34 119,34 L79,34 C78.4477153,34 78,33.5522847 78,33 L78,31 C78,30.4477153 78.4477153,30 79,30 Z M97.9756098,30 L97.9756098,34 L97.9756098,30 Z" id="Combined-Shape" stroke="#FFFFFF" stroke-width="0.5"></path>
            <rect id="Rectangle-Copy-3" stroke="#FFFFFF" stroke-width="0.5" fill="#FFFFFF" x="125.25" y="30.25" width="17.5" height="3.5" rx="1"></rect>
            <path d="M1.5,48.5 L155.338452,48.5" id="Line-2" stroke="#FFFFFF" stroke-linecap="square"></path>
            <rect id="Rectangle" stroke="#FFFFFF" fill="#D8D8D8" x="13.5" y="38.5" width="1" height="1"></rect>
            <path d="M17.5055782,39 L22.1305212,39" id="Line-3" stroke="#FFFFFF" stroke-linecap="round"></path>
            <rect id="Rectangle" fill="#FFFFFF" x="13" y="56" width="60" height="25"></rect>
            <rect id="Rectangle-Copy-2" fill="#FFFFFF" x="13" y="86" width="39" height="25"></rect>
            <circle id="Oval" fill="#FFFFFF" cx="15.5" cy="116.5" r="2.5"></circle>
            <circle id="Oval-Copy-3" fill="#FFFFFF" cx="60.5" cy="116.5" r="2.5"></circle>
            <circle id="Oval-Copy-4" fill="#FFFFFF" cx="105.5" cy="116.5" r="2.5"></circle>
            <rect id="Rectangle-Copy" fill="#FFFFFF" x="82" y="56" width="60" height="25"></rect>
            <rect id="Rectangle-Copy-5" fill="#FFFFFF" x="58" y="86" width="39" height="25"></rect>
            <rect id="Rectangle-Copy-6" fill="#FFFFFF" x="103" y="86" width="39" height="25"></rect>
            <path d="M14,125.5 L49.983534,125.5" id="Line-4" stroke="#FFFFFF" stroke-linecap="round"></path>
            <path d="M59,125.5 L94.983534,125.5" id="Line-4-Copy-4" stroke="#FFFFFF" stroke-linecap="round"></path>
            <path d="M104,125.5 L139.983534,125.5" id="Line-4-Copy-8" stroke="#FFFFFF" stroke-linecap="round"></path>
            <path d="M14,122.5 L45.5,122.5" id="Line-4-Copy-3" stroke="#FFFFFF" stroke-linecap="round"></path>
            <path d="M59,122.5 L90.5,122.5" id="Line-4-Copy-5" stroke="#FFFFFF" stroke-linecap="round"></path>
            <path d="M104,122.5 L135.5,122.5" id="Line-4-Copy-9" stroke="#FFFFFF" stroke-linecap="round"></path>
            <path d="M14,128.5 L47.5,128.5" id="Line-4-Copy" stroke="#FFFFFF" stroke-linecap="round"></path>
            <path d="M59,128.5 L92.5,128.5" id="Line-4-Copy-6" stroke="#FFFFFF" stroke-linecap="round"></path>
            <path d="M104,128.5 L137.5,128.5" id="Line-4-Copy-10" stroke="#FFFFFF" stroke-linecap="round"></path>
            <path d="M14,131.5 L42.5,131.5" id="Line-4-Copy-2" stroke="#FFFFFF" stroke-linecap="round"></path>
            <path d="M59,131.5 L87.5,131.5" id="Line-4-Copy-7" stroke="#FFFFFF" stroke-linecap="round"></path>
            <path d="M104,131.5 L132.5,131.5" id="Line-4-Copy-11" stroke="#FFFFFF" stroke-linecap="round"></path>
        </g>
        <g id="bcom-fullcolor-white" transform="translate(58.000000, 216.000000)">
            <path d="M130.954955,7.89047241 L130.690138,8.22556523 L130.481493,7.85158793 C129.806267,6.62329549 128.646114,6 127.028551,6 C125.335325,6 124.199246,6.9435207 123.671905,7.50391483 L123.325693,7.87674848 L123.193858,7.38497405 C123.000117,6.67819125 122.368453,6.28934635 121.413505,6.28934635 L120.01605,6.28934635 L120,18.9988564 L123.348621,18.9988564 L123.348621,13.3891968 C123.348621,12.8962786 123.40938,12.4102226 123.53319,11.9024369 C123.866792,10.5471981 124.779323,9.08902963 126.315492,9.23541831 C127.262415,9.34978446 127.691167,10.0359813 127.691167,11.4655582 L127.691167,19 L130.84834,19 L130.84834,13.3903404 C130.84834,12.7750506 130.90566,12.3164424 131.044374,11.8555467 C131.326387,10.5620656 132.488833,9.23541831 133.969975,9.23541831 C135.043002,9.23541831 135.574929,9.80724905 135.574929,11.4655582 L135.574929,17.1415501 C135.574929,18.3995777 136.377406,18.9714084 137.638441,19 L138.994627,19 L138.999212,10.8868654 C139.039336,7.6560218 137.545582,6 134.794234,6 C133.283284,6 131.89156,6.7067828 130.954955,7.89047241 L130.954955,7.89047241 Z" id="Shape" fill="#2FAAE1"></path>
            <path d="M106,11.5083944 C106,15.2018942 108.853977,18 112.586102,18 C116.299566,18 118.999868,15.2802412 118.999868,11.5330177 C119.021822,7.79810593 116.297371,5 112.565246,5 C108.860564,5 106,7.7634094 106,11.5083944 L106,11.5083944 Z M112.606958,14.9523031 C110.858348,14.9523031 109.639919,13.534223 109.639919,11.5083944 C109.639919,9.48592346 110.858348,8.06896256 112.606958,8.06896256 C114.365448,8.06896256 115.570705,9.52397765 115.570705,11.5083944 C115.598146,13.6181662 114.431308,14.9612571 112.565246,14.9612571 L112.606958,14.9523031 Z" id="Shape" fill="#2FAAE1"></path>
            <path d="M103.333209,13.4124893 C103.323168,13.4225668 101.865006,14.965547 99.9460762,14.965547 C98.1967274,14.965547 96.4306433,13.8894918 96.4306433,11.4854436 C96.4306433,9.40835487 97.8006694,7.95719208 99.7608778,7.95719208 C100.399033,7.95719208 101.099665,8.18113697 101.211231,8.57080105 L101.227966,8.63686479 C101.487913,9.53264433 102.232056,9.53264433 102.455188,9.55503877 L104.312756,9.55503877 L104.312756,7.9258398 C104.312756,5.77932815 101.590554,5 99.7586463,5 C95.8404612,5 93,7.73660638 93,11.5055986 C93,15.3126615 95.789141,18 99.6939384,18 C103.056527,18 104.885087,15.7818261 104.902938,15.7571921 L105,15.6385014 L103.530681,13.1919036 L103.333209,13.4124893 L103.333209,13.4124893 Z" id="Shape" fill="#2FAAE1"></path>
            <circle id="Oval-2" fill="#2FAAE1" cx="90" cy="16" r="2"></circle>
            <path d="M82.1678557,6.06537404 L82.067593,6.26053956 L81.9019902,6.11473945 C81.3229439,5.60386504 80.286519,5 78.6034548,5 C75.2542245,5 73,7.56355634 73,11.378468 C73,15.1669749 75.365753,17.8074494 78.632745,17.8074494 C79.7705595,17.8074494 80.6740518,17.5365137 81.3871573,16.9831621 L81.6654149,16.7730722 L81.6654149,17.1301104 C81.6654149,18.8406786 80.5805481,19.7843612 78.6113406,19.7843612 C77.653774,19.7843612 76.784078,19.5455704 76.2027788,19.3308884 C75.4412317,19.0955417 74.9962448,19.2895591 74.6898234,20.0656291 L74.4048066,20.7854455 L74.0037552,21.8313031 L74.2515959,21.9667708 C75.5110777,22.6555902 77.1806233,23 78.6451371,23 C81.6947052,23 84.9876079,21.407679 84.9876079,16.9292047 L85,5.18598124 L83.6323695,5.18598124 C82.9519341,5.18598123 82.4292151,5.56138783 82.1678557,6.06537404 L82.1678557,6.06537404 Z M76.6511452,11.2820333 C76.6511452,10.5622169 76.8302666,8.22023087 79.1182876,8.22023087 C80.2561021,8.22023087 81.8220052,8.56464057 81.8220052,11.4025767 C81.7713105,14.0797882 80.378896,14.6538044 79.252347,14.6538044 L79.3075478,14.6561005 C77.3484791,14.6561005 76.6511452,12.9133873 76.6511452,11.2820333 L76.6511452,11.2820333 Z" id="Shape" fill="#FFFFFF"></path>
            <path d="M68.0763088,5.01707527 C66.3107562,5.01707527 65.1828848,5.84124168 64.5517106,6.53563605 L64.3424038,6.76102961 L64.2675737,6.45708979 C64.0821257,5.71033127 63.4574583,5.30052478 62.515035,5.30052478 L61,5.30052478 L61.008676,17.9999729 L64.2166026,17.9999729 L64.2166026,12.14657 C64.2166026,11.5728409 64.2870946,11.0765197 64.431332,10.6234559 C64.8141576,9.25288083 65.68392,8.40025563 67.0210983,8.40025563 C68.0969143,8.40025563 68.7562852,8.96943132 68.7562852,10.5369412 L68.7562852,16.069329 C68.7562852,17.4353507 69.5154293,18.0045264 70.8168196,17.9999729 L72,17.9999729 L72,9.99963936 C71.9360151,6.82136223 70.890565,5 68.0708864,5" id="Shape" fill="#FFFFFF"></path>
            <path d="M58,17.9007292 L58,7.81142144 C58,6.59562356 57.4424324,6.00533714 56.2852751,6.00533714 L55,6 L55.0092245,15.2086816 L55,15.2086816 L55.0092245,18 L58,18" id="Shape" fill="#FFFFFF"></path>
            <circle id="Oval-2" fill="#FFFFFF" cx="57" cy="2" r="2"></circle>
            <path d="M50.8049088,11.9890758 C50.6656682,11.7099447 50.5072955,11.4737569 50.3372307,11.2861627 L50.2288145,11.1652436 L50.3425453,11.0477146 C50.5072955,10.8635107 50.6752344,10.6465343 50.8367959,10.3922652 L54,5.39389751 L50.1597257,5.39389751 L47.7841338,9.30399292 C47.6502078,9.51418882 47.3781042,9.61928675 46.9720748,9.61928675 L46.1515123,9.61928675 L46.1515123,2.22739827 C46.1515123,0.748116516 45.197024,-3.81849028e-16 44.2606049,-3.81849028e-16 L43,-3.81849028e-16 L43.0021258,18 L46.1515123,18 L46.1515123,12.7643143 L46.7499276,12.7643143 C47.1378877,12.7643143 47.3876704,12.7643143 47.4939609,13.0355348 L49.3710505,16.7648166 C49.8950625,17.7818935 50.433955,18.0079106 51.3905692,17.961577 L53.9968113,17.961577 L52.0548847,14.5453289 L50.8049088,11.9890758 L50.8049088,11.9890758 Z" id="Shape" fill="#FFFFFF"></path>
            <path d="M28,11.5089531 C28,15.202135 30.679451,18 34.4753399,18 C38.251133,18 40.9998032,15.2815944 40.9998032,11.5346936 C41.0265978,7.79786502 38.3147699,5 34.5188809,5 C30.7509028,5 28,7.76540979 28,11.5089531 L28,11.5089531 Z M34.5010179,14.9514463 C32.7225324,14.9514463 31.4832864,13.5357266 31.4832864,11.5089531 C31.4832864,9.48553717 32.7225324,8.06981751 34.5010179,8.06981751 C36.2895516,8.06981751 37.5154004,9.52470728 37.5154004,11.5089531 C37.5433114,13.6174243 36.3051816,14.9603995 34.5188809,14.9603995 L34.5010179,14.9514463 Z" id="Shape" fill="#FFFFFF"></path>
            <path d="M13,11.5089531 C13,15.202135 15.6796968,18 19.475934,18 C23.2543065,18 25.9998792,15.2815944 25.9998792,11.5346936 C26.0210934,7.79786502 23.2453743,5 19.4491371,5 C15.6830464,5 13,7.76540979 13,11.5089531 L13,11.5089531 Z M19.4982647,14.9514463 C17.7184995,14.9514463 16.4824894,13.5357266 16.4824894,11.5089531 C16.4824894,9.48553717 17.7184995,8.06981751 19.4982647,8.06981751 C21.2891956,8.06981751 22.5129237,9.52470728 22.5129237,11.5089531 C22.5386042,13.6174243 21.3472556,14.9603995 19.4491371,14.9603995 L19.4982647,14.9514463 Z" id="Shape" fill="#FFFFFF"></path>
            <path d="M9.43483868,8.88490467 L9.89499239,8.50019451 C10.4294007,8.05044741 11.3260817,7.0385164 11.3260817,5.2891324 C11.3260817,2.61269614 9.20757451,1 5.92911994,1 L2.42677642,1 L2.1860114,1 L2.00149988,1 C1.02943923,1.01322785 0,2.00531708 0,2.96102968 L0,3.79769161 L0,16.1525093 L0,18 L1.71685712,18 L6.00224951,18 C9.64635189,18 11.9999987,15.8978731 11.9999987,12.8885358 C12.0011238,11.2648165 11.250702,9.83179872 10.0131248,9.1704059 L9.43483868,8.88490467 L9.43483868,8.88490467 Z M3.33020779,5.7697445 L3.33020779,5.7697445 L3.33020779,4.87135261 C3.33020779,4.08649979 3.669979,3.71171053 4.41477546,3.66541304 L5.9043684,3.66541304 C7.18244815,3.66541304 7.92949476,4.43703799 7.92949476,5.66833094 C7.92949476,6.62404356 7.40521205,7.53676564 5.93249517,7.53676564 L3.33020779,7.53676564 L3.33020779,5.7697445 L3.33020779,5.7697445 Z M3.33020779,14.7305148 L3.33020779,12.4564258 L3.33020779,11.558034 C3.33020779,10.8282972 3.61935084,10.450201 4.25726563,10.3642199 L6.24301453,10.3642199 C7.66060299,10.3642199 8.60566195,11.246077 8.60566195,12.6790948 C8.57528505,14.130852 7.70560585,14.7305146 6.24301458,14.7305146 L3.33020779,14.7305148 L3.33020779,14.7305148 Z" id="Shape" fill="#FFFFFF"></path>
        </g>
    </g>
</svg>